<?xml version="1.0" standalone="no"?>
<!DOCTYPE svg PUBLIC "-//W3C//DTD SVG 20010904//EN"
 "http://www.w3.org/TR/2001/REC-SVG-20010904/DTD/svg10.dtd">
<svg version="1.0" xmlns="http://www.w3.org/2000/svg"
 width="700.000000pt" height="700.000000pt" viewBox="0 0 700.000000 700.000000"
 preserveAspectRatio="xMidYMid meet">
<metadata>
Created by potrace 1.11, written by Peter Selinger 2001-2013
</metadata>
<g transform="translate(0.000000,700.000000) scale(0.100000,-0.100000)"
fill="#000000" stroke="none">
<path d="M4586 6827 c-15 -17 -45 -50 -65 -72 -53 -57 -56 -64 -34 -83 40 -36
183 -204 224 -264 71 -104 121 -216 123 -273 1 -74 -22 -111 -162 -253 -177
-180 -227 -264 -235 -392 -8 -117 40 -252 144 -407 50 -76 146 -202 178 -234
9 -9 38 -40 65 -68 l49 -53 21 24 c12 13 44 50 73 84 l52 60 -52 56 c-29 30
-68 75 -87 99 -19 23 -47 57 -61 74 -49 57 -131 196 -154 260 -20 55 -18 110
6 156 12 24 77 100 145 169 148 151 156 162 194 242 35 75 41 102 41 186 0
147 -113 359 -316 592 -122 140 -115 136 -149 97z"/>
<path d="M5235 6835 c-11 -13 -43 -50 -72 -83 l-52 -58 42 -45 c92 -99 117
-128 173 -205 69 -93 131 -208 149 -274 11 -41 10 -53 -8 -100 -16 -43 -45
-80 -156 -194 -192 -199 -233 -276 -227 -429 7 -183 128 -393 386 -670 l46
-49 59 69 c95 107 90 99 62 127 -114 114 -268 322 -313 423 -59 134 -39 184
149 376 181 186 228 277 221 429 -7 151 -131 375 -327 592 -40 44 -79 87 -88
98 -20 22 -19 22 -44 -7z"/>
<path d="M5835 6784 c-39 -42 -71 -80 -73 -84 -2 -4 37 -53 85 -107 137 -156
185 -222 241 -340 42 -89 46 -147 14 -209 -11 -22 -69 -89 -129 -150 -60 -60
-125 -129 -145 -154 -151 -190 -136 -397 50 -672 93 -138 277 -348 291 -331 4
4 35 40 69 79 34 39 62 74 62 78 0 5 -33 45 -73 90 -185 204 -287 377 -287
483 0 59 42 118 187 267 111 113 138 147 169 212 31 66 38 90 41 163 4 78 2
94 -27 174 -55 151 -175 328 -347 515 l-58 63 -70 -77z"/>
<path d="M2500 6678 c-190 -17 -391 -74 -575 -163 -107 -52 -260 -148 -319
-200 -16 -14 -32 -25 -36 -25 -12 0 -204 -195 -261 -266 -84 -103 -157 -217
-215 -334 -50 -100 -116 -281 -127 -345 -3 -16 -10 -55 -17 -85 -12 -63 -19
-131 -24 -243 -3 -69 -6 -81 -31 -107 -34 -36 -126 -84 -268 -140 -163 -65
-217 -112 -200 -178 3 -15 40 -60 81 -100 112 -107 150 -115 360 -71 51 11 98
17 103 14 12 -8 -2 -34 -53 -92 -87 -100 -111 -211 -59 -267 50 -54 190 -68
301 -31 l54 18 26 -31 c84 -101 71 -243 -38 -407 -62 -93 -255 -286 -356 -354
-12 -8 -23 -18 -26 -22 -3 -3 -30 -23 -60 -43 -92 -60 -103 -68 -160 -115
-312 -255 -529 -651 -586 -1071 -12 -86 -11 -303 2 -358 7 -31 15 -70 18 -85
17 -97 86 -303 142 -425 19 -41 34 -76 34 -78 0 -7 128 -218 147 -243 271
-349 580 -551 1048 -686 66 -19 136 -37 155 -40 19 -3 64 -13 99 -21 36 -8 97
-19 135 -25 39 -5 82 -11 96 -14 14 -2 54 -7 90 -10 36 -4 74 -9 84 -11 140
-27 1508 -27 1653 0 10 2 52 7 93 11 140 14 216 23 325 41 50 8 104 17 120 20
17 2 41 6 55 9 14 3 39 7 55 10 17 2 62 12 100 20 39 8 90 20 115 25 74 15 82
17 165 40 239 64 441 133 690 238 189 79 470 237 655 368 138 97 175 129 298
252 257 261 450 603 542 962 58 227 65 293 65 590 0 235 -3 276 -26 400 -46
250 -177 595 -389 1025 -180 363 -240 466 -299 514 -131 103 -294 74 -451 -79
-98 -96 -201 -249 -245 -364 -48 -126 -415 -333 -865 -488 -199 -68 -440 -127
-590 -144 -30 -3 -73 -9 -95 -13 -70 -12 -257 -4 -325 13 -151 38 -224 125
-210 248 9 88 61 152 335 414 71 68 137 157 168 224 16 36 39 85 50 110 11 25
22 50 23 55 1 6 12 32 24 59 22 49 73 239 85 314 68 457 -46 912 -312 1240
-92 113 -199 206 -338 293 -314 197 -660 279 -1035 247z"/>
</g>
</svg>
